<?xml version="1.0"?>
<!-- Generated by SVGo and Plotinum VG -->
<svg width="432pt" height="432pt" viewBox="0 0 432 432"
	xmlns="http://www.w3.org/2000/svg"
	xmlns:xlink="http://www.w3.org/1999/xlink">
<g transform="scale(1, -1) translate(0, -432)">
<path d="M0,0L432,0L432,432L0,432Z" style="fill:#FFFFFF" />
<text x="168.52" y="-422.61" transform="scale(1, -1)"
	style="font-family:Liberation Serif;font-variant:normal;font-weight:normal;font-style:normal;font-size:12px">Error rate over time</text>
<text x="200.46" y="-3.9023" transform="scale(1, -1)"
	style="font-family:Liberation Serif;font-variant:normal;font-weight:normal;font-style:normal;font-size:12px">Time of test (s)</text>
<text x="42.135" y="-16.541" transform="scale(1, -1)"
	style="font-family:Liberation Serif;font-variant:normal;font-weight:normal;font-style:normal;font-size:10px">30</text>
<text x="232.07" y="-16.541" transform="scale(1, -1)"
	style="font-family:Liberation Serif;font-variant:normal;font-weight:normal;font-style:normal;font-size:10px">31</text>
<text x="422" y="-16.541" transform="scale(1, -1)"
	style="font-family:Liberation Serif;font-variant:normal;font-weight:normal;font-style:normal;font-size:10px">32</text>
<path d="M47.135,24.363L47.135,32.363" style="fill:none;stroke:#000000;stroke-width:0.5" />
<path d="M237.07,24.363L237.07,32.363" style="fill:none;stroke:#000000;stroke-width:0.5" />
<path d="M427,24.363L427,32.363" style="fill:none;stroke:#000000;stroke-width:0.5" />
<path d="M85.121,28.363L85.121,32.363" style="fill:none;stroke:#000000;stroke-width:0.5" />
<path d="M123.11,28.363L123.11,32.363" style="fill:none;stroke:#000000;stroke-width:0.5" />
<path d="M161.09,28.363L161.09,32.363" style="fill:none;stroke:#000000;stroke-width:0.5" />
<path d="M199.08,28.363L199.08,32.363" style="fill:none;stroke:#000000;stroke-width:0.5" />
<path d="M275.05,28.363L275.05,32.363" style="fill:none;stroke:#000000;stroke-width:0.5" />
<path d="M313.04,28.363L313.04,32.363" style="fill:none;stroke:#000000;stroke-width:0.5" />
<path d="M351.03,28.363L351.03,32.363" style="fill:none;stroke:#000000;stroke-width:0.5" />
<path d="M389.01,28.363L389.01,32.363" style="fill:none;stroke:#000000;stroke-width:0.5" />
<path d="M47.135,32.363L427,32.363" style="fill:none;stroke:#000000;stroke-width:0.5" />
<g transform="rotate(90)">
<text x="162.72" y="9.3867" transform="scale(1, -1)"
	style="font-family:Liberation Serif;font-variant:normal;font-weight:normal;font-style:normal;font-size:12px">Number of errors (per sec)</text>
</g>
<text x="15.885" y="-37.924" transform="scale(1, -1)"
	style="font-family:Liberation Serif;font-variant:normal;font-weight:normal;font-style:normal;font-size:10px">194</text>
<text x="15.885" y="-224.41" transform="scale(1, -1)"
	style="font-family:Liberation Serif;font-variant:normal;font-weight:normal;font-style:normal;font-size:10px">195</text>
<text x="15.885" y="-410.89" transform="scale(1, -1)"
	style="font-family:Liberation Serif;font-variant:normal;font-weight:normal;font-style:normal;font-size:10px">196</text>
<path d="M33.385,40.209L41.385,40.209" style="fill:none;stroke:#000000;stroke-width:0.5" />
<path d="M33.385,226.69L41.385,226.69" style="fill:none;stroke:#000000;stroke-width:0.5" />
<path d="M33.385,413.17L41.385,413.17" style="fill:none;stroke:#000000;stroke-width:0.5" />
<path d="M37.385,77.505L41.385,77.505" style="fill:none;stroke:#000000;stroke-width:0.5" />
<path d="M37.385,114.8L41.385,114.8" style="fill:none;stroke:#000000;stroke-width:0.5" />
<path d="M37.385,152.1L41.385,152.1" style="fill:none;stroke:#000000;stroke-width:0.5" />
<path d="M37.385,189.39L41.385,189.39" style="fill:none;stroke:#000000;stroke-width:0.5" />
<path d="M37.385,263.99L41.385,263.99" style="fill:none;stroke:#000000;stroke-width:0.5" />
<path d="M37.385,301.28L41.385,301.28" style="fill:none;stroke:#000000;stroke-width:0.5" />
<path d="M37.385,338.58L41.385,338.58" style="fill:none;stroke:#000000;stroke-width:0.5" />
<path d="M37.385,375.88L41.385,375.88" style="fill:none;stroke:#000000;stroke-width:0.5" />
<path d="M41.385,40.209L41.385,413.17" style="fill:none;stroke:#000000;stroke-width:0.5" />
<path d="M239.57,226.69A2.5,2.5 0 1 1 234.57,226.69A2.5,2.5 0 1 1 239.57,226.69Z" style="fill:#EE2E2F" />
</g>
</svg>
