<?xml version="1.0"?>
<!-- Generated by SVGo and Plotinum VG -->
<svg width="432pt" height="432pt" viewBox="0 0 432 432"
	xmlns="http://www.w3.org/2000/svg"
	xmlns:xlink="http://www.w3.org/1999/xlink">
<g transform="scale(1, -1) translate(0, -432)">
<path d="M0,0L432,0L432,432L0,432Z" style="fill:#FFFFFF" />
<text x="170.51" y="-422.61" transform="scale(1, -1)"
	style="font-family:Liberation Serif;font-variant:normal;font-weight:normal;font-style:normal;font-size:12px">Response latencies</text>
<text x="205.46" y="-3.9023" transform="scale(1, -1)"
	style="font-family:Liberation Serif;font-variant:normal;font-weight:normal;font-style:normal;font-size:12px">Time of test (s)</text>
<text x="89.621" y="-16.541" transform="scale(1, -1)"
	style="font-family:Liberation Serif;font-variant:normal;font-weight:normal;font-style:normal;font-size:10px">4</text>
<text x="237.07" y="-16.541" transform="scale(1, -1)"
	style="font-family:Liberation Serif;font-variant:normal;font-weight:normal;font-style:normal;font-size:10px">16</text>
<text x="387.01" y="-16.541" transform="scale(1, -1)"
	style="font-family:Liberation Serif;font-variant:normal;font-weight:normal;font-style:normal;font-size:10px">28</text>
<path d="M92.121,24.363L92.121,32.363" style="fill:none;stroke:#000000;stroke-width:0.5" />
<path d="M242.07,24.363L242.07,32.363" style="fill:none;stroke:#000000;stroke-width:0.5" />
<path d="M392.01,24.363L392.01,32.363" style="fill:none;stroke:#000000;stroke-width:0.5" />
<path d="M167.09,28.363L167.09,32.363" style="fill:none;stroke:#000000;stroke-width:0.5" />
<path d="M317.04,28.363L317.04,32.363" style="fill:none;stroke:#000000;stroke-width:0.5" />
<path d="M54.635,32.363L429.5,32.363" style="fill:none;stroke:#000000;stroke-width:0.5" />
<g transform="rotate(90)">
<text x="197.64" y="9.3867" transform="scale(1, -1)"
	style="font-family:Liberation Serif;font-variant:normal;font-weight:normal;font-style:normal;font-size:12px">Latency (ms)</text>
</g>
<text x="20.885" y="-105.48" transform="scale(1, -1)"
	style="font-family:Liberation Serif;font-variant:normal;font-weight:normal;font-style:normal;font-size:10px">400</text>
<text x="15.885" y="-250.46" transform="scale(1, -1)"
	style="font-family:Liberation Serif;font-variant:normal;font-weight:normal;font-style:normal;font-size:10px">1200</text>
<text x="15.885" y="-395.44" transform="scale(1, -1)"
	style="font-family:Liberation Serif;font-variant:normal;font-weight:normal;font-style:normal;font-size:10px">2000</text>
<path d="M38.385,107.77L46.385,107.77" style="fill:none;stroke:#000000;stroke-width:0.5" />
<path d="M38.385,252.75L46.385,252.75" style="fill:none;stroke:#000000;stroke-width:0.5" />
<path d="M38.385,397.73L46.385,397.73" style="fill:none;stroke:#000000;stroke-width:0.5" />
<path d="M42.385,180.26L46.385,180.26" style="fill:none;stroke:#000000;stroke-width:0.5" />
<path d="M42.385,325.24L46.385,325.24" style="fill:none;stroke:#000000;stroke-width:0.5" />
<path d="M46.385,42.709L46.385,416.21" style="fill:none;stroke:#000000;stroke-width:0.5" />
<path d="M54.635,42.709L54.635,47.783L67.13,171.83L79.626,171.83L92.121,170.83L104.62,170.83L117.11,170.83L129.61,171.29L142.1,170.83L154.6,416.21L192.09,412.41L204.58,310.83L217.08,252.93L229.57,205.45L242.07,201.64L254.56,198.11L267.06,201.64L279.55,197.11L292.05,196.11L304.54,194.67L317.04,186.42L329.54,182.7L342.03,194.67L354.53,186.42L367.02,182.7L379.52,186.42L392.01,185.79L404.51,178.17L417,173.82L429.5,172.28L429.5,42.709Z" style="fill:#F15A60" />
<path d="M54.635,47.783L67.13,171.83L79.626,171.83L92.121,170.83L104.62,170.83L117.11,170.83L129.61,171.29L142.1,170.83L154.6,416.21L192.09,412.41L204.58,310.83L217.08,252.93L229.57,205.45L242.07,201.64L254.56,198.11L267.06,201.64L279.55,197.11L292.05,196.11L304.54,194.67L317.04,186.42L329.54,182.7L342.03,194.67L354.53,186.42L367.02,182.7L379.52,186.42L392.01,185.79L404.51,178.17L417,173.82L429.5,172.28" style="fill:none;stroke:#EE2E2F" />
<path d="M57.135,47.783A2.5,2.5 0 1 1 52.135,47.783A2.5,2.5 0 1 1 57.135,47.783Z" style="fill:#EE2E2F" />
<path d="M69.63,171.83A2.5,2.5 0 1 1 64.63,171.83A2.5,2.5 0 1 1 69.63,171.83Z" style="fill:#EE2E2F" />
<path d="M82.126,171.83A2.5,2.5 0 1 1 77.126,171.83A2.5,2.5 0 1 1 82.126,171.83Z" style="fill:#EE2E2F" />
<path d="M94.621,170.83A2.5,2.5 0 1 1 89.621,170.83A2.5,2.5 0 1 1 94.621,170.83Z" style="fill:#EE2E2F" />
<path d="M107.12,170.83A2.5,2.5 0 1 1 102.12,170.83A2.5,2.5 0 1 1 107.12,170.83Z" style="fill:#EE2E2F" />
<path d="M119.61,170.83A2.5,2.5 0 1 1 114.61,170.83A2.5,2.5 0 1 1 119.61,170.83Z" style="fill:#EE2E2F" />
<path d="M132.11,171.29A2.5,2.5 0 1 1 127.11,171.29A2.5,2.5 0 1 1 132.11,171.29Z" style="fill:#EE2E2F" />
<path d="M144.6,170.83A2.5,2.5 0 1 1 139.6,170.83A2.5,2.5 0 1 1 144.6,170.83Z" style="fill:#EE2E2F" />
<path d="M157.1,416.21A2.5,2.5 0 1 1 152.1,416.21A2.5,2.5 0 1 1 157.1,416.21Z" style="fill:#EE2E2F" />
<path d="M194.59,412.41A2.5,2.5 0 1 1 189.59,412.41A2.5,2.5 0 1 1 194.59,412.41Z" style="fill:#EE2E2F" />
<path d="M207.08,310.83A2.5,2.5 0 1 1 202.08,310.83A2.5,2.5 0 1 1 207.08,310.83Z" style="fill:#EE2E2F" />
<path d="M219.58,252.93A2.5,2.5 0 1 1 214.58,252.93A2.5,2.5 0 1 1 219.58,252.93Z" style="fill:#EE2E2F" />
<path d="M232.07,205.45A2.5,2.5 0 1 1 227.07,205.45A2.5,2.5 0 1 1 232.07,205.45Z" style="fill:#EE2E2F" />
<path d="M244.57,201.64A2.5,2.5 0 1 1 239.57,201.64A2.5,2.5 0 1 1 244.57,201.64Z" style="fill:#EE2E2F" />
<path d="M257.06,198.11A2.5,2.5 0 1 1 252.06,198.11A2.5,2.5 0 1 1 257.06,198.11Z" style="fill:#EE2E2F" />
<path d="M269.56,201.64A2.5,2.5 0 1 1 264.56,201.64A2.5,2.5 0 1 1 269.56,201.64Z" style="fill:#EE2E2F" />
<path d="M282.05,197.11A2.5,2.5 0 1 1 277.05,197.11A2.5,2.5 0 1 1 282.05,197.11Z" style="fill:#EE2E2F" />
<path d="M294.55,196.11A2.5,2.5 0 1 1 289.55,196.11A2.5,2.5 0 1 1 294.55,196.11Z" style="fill:#EE2E2F" />
<path d="M307.04,194.67A2.5,2.5 0 1 1 302.04,194.67A2.5,2.5 0 1 1 307.04,194.67Z" style="fill:#EE2E2F" />
<path d="M319.54,186.42A2.5,2.5 0 1 1 314.54,186.42A2.5,2.5 0 1 1 319.54,186.42Z" style="fill:#EE2E2F" />
<path d="M332.04,182.7A2.5,2.5 0 1 1 327.04,182.7A2.5,2.5 0 1 1 332.04,182.7Z" style="fill:#EE2E2F" />
<path d="M344.53,194.67A2.5,2.5 0 1 1 339.53,194.67A2.5,2.5 0 1 1 344.53,194.67Z" style="fill:#EE2E2F" />
<path d="M357.03,186.42A2.5,2.5 0 1 1 352.03,186.42A2.5,2.5 0 1 1 357.03,186.42Z" style="fill:#EE2E2F" />
<path d="M369.52,182.7A2.5,2.5 0 1 1 364.52,182.7A2.5,2.5 0 1 1 369.52,182.7Z" style="fill:#EE2E2F" />
<path d="M382.02,186.42A2.5,2.5 0 1 1 377.02,186.42A2.5,2.5 0 1 1 382.02,186.42Z" style="fill:#EE2E2F" />
<path d="M394.51,185.79A2.5,2.5 0 1 1 389.51,185.79A2.5,2.5 0 1 1 394.51,185.79Z" style="fill:#EE2E2F" />
<path d="M407.01,178.17A2.5,2.5 0 1 1 402.01,178.17A2.5,2.5 0 1 1 407.01,178.17Z" style="fill:#EE2E2F" />
<path d="M419.5,173.82A2.5,2.5 0 1 1 414.5,173.82A2.5,2.5 0 1 1 419.5,173.82Z" style="fill:#EE2E2F" />
<path d="M432,172.28A2.5,2.5 0 1 1 427,172.28A2.5,2.5 0 1 1 432,172.28Z" style="fill:#EE2E2F" />
<path d="M54.635,42.709L54.635,46.424L67.13,50.683L79.626,100.88L92.121,105.59L104.62,100.88L117.11,100.88L129.61,132.51L142.1,116.74L154.6,125.89L192.09,123.44L204.58,104.23L217.08,100.88L229.57,96.804L242.07,100.88L254.56,96.714L267.06,101.06L279.55,100.88L292.05,100.88L304.54,98.888L317.04,97.439L329.54,97.439L342.03,97.439L354.53,97.348L367.02,96.532L379.52,96.17L392.01,95.989L404.51,95.445L417,94.72L429.5,94.72L429.5,42.709Z" style="fill:#7AC36A" />
<path d="M54.635,46.424L67.13,50.683L79.626,100.88L92.121,105.59L104.62,100.88L117.11,100.88L129.61,132.51L142.1,116.74L154.6,125.89L192.09,123.44L204.58,104.23L217.08,100.88L229.57,96.804L242.07,100.88L254.56,96.714L267.06,101.06L279.55,100.88L292.05,100.88L304.54,98.888L317.04,97.439L329.54,97.439L342.03,97.439L354.53,97.348L367.02,96.532L379.52,96.17L392.01,95.989L404.51,95.445L417,94.72L429.5,94.72" style="fill:none;stroke:#008C48" />
<path d="M57.135,46.424A2.5,2.5 0 1 1 52.135,46.424A2.5,2.5 0 1 1 57.135,46.424Z" style="fill:#008C48" />
<path d="M69.63,50.683A2.5,2.5 0 1 1 64.63,50.683A2.5,2.5 0 1 1 69.63,50.683Z" style="fill:#008C48" />
<path d="M82.126,100.88A2.5,2.5 0 1 1 77.126,100.88A2.5,2.5 0 1 1 82.126,100.88Z" style="fill:#008C48" />
<path d="M94.621,105.59A2.5,2.5 0 1 1 89.621,105.59A2.5,2.5 0 1 1 94.621,105.59Z" style="fill:#008C48" />
<path d="M107.12,100.88A2.5,2.5 0 1 1 102.12,100.88A2.5,2.5 0 1 1 107.12,100.88Z" style="fill:#008C48" />
<path d="M119.61,100.88A2.5,2.5 0 1 1 114.61,100.88A2.5,2.5 0 1 1 119.61,100.88Z" style="fill:#008C48" />
<path d="M132.11,132.51A2.5,2.5 0 1 1 127.11,132.51A2.5,2.5 0 1 1 132.11,132.51Z" style="fill:#008C48" />
<path d="M144.6,116.74A2.5,2.5 0 1 1 139.6,116.74A2.5,2.5 0 1 1 144.6,116.74Z" style="fill:#008C48" />
<path d="M157.1,125.89A2.5,2.5 0 1 1 152.1,125.89A2.5,2.5 0 1 1 157.1,125.89Z" style="fill:#008C48" />
<path d="M194.59,123.44A2.5,2.5 0 1 1 189.59,123.44A2.5,2.5 0 1 1 194.59,123.44Z" style="fill:#008C48" />
<path d="M207.08,104.23A2.5,2.5 0 1 1 202.08,104.23A2.5,2.5 0 1 1 207.08,104.23Z" style="fill:#008C48" />
<path d="M219.58,100.88A2.5,2.5 0 1 1 214.58,100.88A2.5,2.5 0 1 1 219.58,100.88Z" style="fill:#008C48" />
<path d="M232.07,96.804A2.5,2.5 0 1 1 227.07,96.804A2.5,2.5 0 1 1 232.07,96.804Z" style="fill:#008C48" />
<path d="M244.57,100.88A2.5,2.5 0 1 1 239.57,100.88A2.5,2.5 0 1 1 244.57,100.88Z" style="fill:#008C48" />
<path d="M257.06,96.714A2.5,2.5 0 1 1 252.06,96.714A2.5,2.5 0 1 1 257.06,96.714Z" style="fill:#008C48" />
<path d="M269.56,101.06A2.5,2.5 0 1 1 264.56,101.06A2.5,2.5 0 1 1 269.56,101.06Z" style="fill:#008C48" />
<path d="M282.05,100.88A2.5,2.5 0 1 1 277.05,100.88A2.5,2.5 0 1 1 282.05,100.88Z" style="fill:#008C48" />
<path d="M294.55,100.88A2.5,2.5 0 1 1 289.55,100.88A2.5,2.5 0 1 1 294.55,100.88Z" style="fill:#008C48" />
<path d="M307.04,98.888A2.5,2.5 0 1 1 302.04,98.888A2.5,2.5 0 1 1 307.04,98.888Z" style="fill:#008C48" />
<path d="M319.54,97.439A2.5,2.5 0 1 1 314.54,97.439A2.5,2.5 0 1 1 319.54,97.439Z" style="fill:#008C48" />
<path d="M332.04,97.439A2.5,2.5 0 1 1 327.04,97.439A2.5,2.5 0 1 1 332.04,97.439Z" style="fill:#008C48" />
<path d="M344.53,97.439A2.5,2.5 0 1 1 339.53,97.439A2.5,2.5 0 1 1 344.53,97.439Z" style="fill:#008C48" />
<path d="M357.03,97.348A2.5,2.5 0 1 1 352.03,97.348A2.5,2.5 0 1 1 357.03,97.348Z" style="fill:#008C48" />
<path d="M369.52,96.532A2.5,2.5 0 1 1 364.52,96.532A2.5,2.5 0 1 1 369.52,96.532Z" style="fill:#008C48" />
<path d="M382.02,96.17A2.5,2.5 0 1 1 377.02,96.17A2.5,2.5 0 1 1 382.02,96.17Z" style="fill:#008C48" />
<path d="M394.51,95.989A2.5,2.5 0 1 1 389.51,95.989A2.5,2.5 0 1 1 394.51,95.989Z" style="fill:#008C48" />
<path d="M407.01,95.445A2.5,2.5 0 1 1 402.01,95.445A2.5,2.5 0 1 1 407.01,95.445Z" style="fill:#008C48" />
<path d="M419.5,94.72A2.5,2.5 0 1 1 414.5,94.72A2.5,2.5 0 1 1 419.5,94.72Z" style="fill:#008C48" />
<path d="M432,94.72A2.5,2.5 0 1 1 427,94.72A2.5,2.5 0 1 1 432,94.72Z" style="fill:#008C48" />
<path d="M54.635,42.709L54.635,45.337L67.13,45.971L79.626,51.136L92.121,52.133L104.62,48.871L117.11,51.77L129.61,68.08L142.1,68.08L154.6,69.711L192.09,70.889L204.58,68.08L217.08,50.773L229.57,49.777L242.07,51.77L254.56,51.589L267.06,65.543L279.55,66.993L292.05,65.906L304.54,66.993L317.04,66.631L329.54,68.262L342.03,68.986L354.53,69.349L367.02,68.262L379.52,68.805L392.01,68.624L404.51,68.08L417,59.925L429.5,59.744L429.5,42.709Z" style="fill:#5A9BD4" />
<path d="M54.635,45.337L67.13,45.971L79.626,51.136L92.121,52.133L104.62,48.871L117.11,51.77L129.61,68.08L142.1,68.08L154.6,69.711L192.09,70.889L204.58,68.08L217.08,50.773L229.57,49.777L242.07,51.77L254.56,51.589L267.06,65.543L279.55,66.993L292.05,65.906L304.54,66.993L317.04,66.631L329.54,68.262L342.03,68.986L354.53,69.349L367.02,68.262L379.52,68.805L392.01,68.624L404.51,68.08L417,59.925L429.5,59.744" style="fill:none;stroke:#185AA9" />
<path d="M57.135,45.337A2.5,2.5 0 1 1 52.135,45.337A2.5,2.5 0 1 1 57.135,45.337Z" style="fill:#185AA9" />
<path d="M69.63,45.971A2.5,2.5 0 1 1 64.63,45.971A2.5,2.5 0 1 1 69.63,45.971Z" style="fill:#185AA9" />
<path d="M82.126,51.136A2.5,2.5 0 1 1 77.126,51.136A2.5,2.5 0 1 1 82.126,51.136Z" style="fill:#185AA9" />
<path d="M94.621,52.133A2.5,2.5 0 1 1 89.621,52.133A2.5,2.5 0 1 1 94.621,52.133Z" style="fill:#185AA9" />
<path d="M107.12,48.871A2.5,2.5 0 1 1 102.12,48.871A2.5,2.5 0 1 1 107.12,48.871Z" style="fill:#185AA9" />
<path d="M119.61,51.77A2.5,2.5 0 1 1 114.61,51.77A2.5,2.5 0 1 1 119.61,51.77Z" style="fill:#185AA9" />
<path d="M132.11,68.08A2.5,2.5 0 1 1 127.11,68.08A2.5,2.5 0 1 1 132.11,68.08Z" style="fill:#185AA9" />
<path d="M144.6,68.08A2.5,2.5 0 1 1 139.6,68.08A2.5,2.5 0 1 1 144.6,68.08Z" style="fill:#185AA9" />
<path d="M157.1,69.711A2.5,2.5 0 1 1 152.1,69.711A2.5,2.5 0 1 1 157.1,69.711Z" style="fill:#185AA9" />
<path d="M194.59,70.889A2.5,2.5 0 1 1 189.59,70.889A2.5,2.5 0 1 1 194.59,70.889Z" style="fill:#185AA9" />
<path d="M207.08,68.08A2.5,2.5 0 1 1 202.08,68.08A2.5,2.5 0 1 1 207.08,68.08Z" style="fill:#185AA9" />
<path d="M219.58,50.773A2.5,2.5 0 1 1 214.58,50.773A2.5,2.5 0 1 1 219.58,50.773Z" style="fill:#185AA9" />
<path d="M232.07,49.777A2.5,2.5 0 1 1 227.07,49.777A2.5,2.5 0 1 1 232.07,49.777Z" style="fill:#185AA9" />
<path d="M244.57,51.77A2.5,2.5 0 1 1 239.57,51.77A2.5,2.5 0 1 1 244.57,51.77Z" style="fill:#185AA9" />
<path d="M257.06,51.589A2.5,2.5 0 1 1 252.06,51.589A2.5,2.5 0 1 1 257.06,51.589Z" style="fill:#185AA9" />
<path d="M269.56,65.543A2.5,2.5 0 1 1 264.56,65.543A2.5,2.5 0 1 1 269.56,65.543Z" style="fill:#185AA9" />
<path d="M282.05,66.993A2.5,2.5 0 1 1 277.05,66.993A2.5,2.5 0 1 1 282.05,66.993Z" style="fill:#185AA9" />
<path d="M294.55,65.906A2.5,2.5 0 1 1 289.55,65.906A2.5,2.5 0 1 1 294.55,65.906Z" style="fill:#185AA9" />
<path d="M307.04,66.993A2.5,2.5 0 1 1 302.04,66.993A2.5,2.5 0 1 1 307.04,66.993Z" style="fill:#185AA9" />
<path d="M319.54,66.631A2.5,2.5 0 1 1 314.54,66.631A2.5,2.5 0 1 1 319.54,66.631Z" style="fill:#185AA9" />
<path d="M332.04,68.262A2.5,2.5 0 1 1 327.04,68.262A2.5,2.5 0 1 1 332.04,68.262Z" style="fill:#185AA9" />
<path d="M344.53,68.986A2.5,2.5 0 1 1 339.53,68.986A2.5,2.5 0 1 1 344.53,68.986Z" style="fill:#185AA9" />
<path d="M357.03,69.349A2.5,2.5 0 1 1 352.03,69.349A2.5,2.5 0 1 1 357.03,69.349Z" style="fill:#185AA9" />
<path d="M369.52,68.262A2.5,2.5 0 1 1 364.52,68.262A2.5,2.5 0 1 1 369.52,68.262Z" style="fill:#185AA9" />
<path d="M382.02,68.805A2.5,2.5 0 1 1 377.02,68.805A2.5,2.5 0 1 1 382.02,68.805Z" style="fill:#185AA9" />
<path d="M394.51,68.624A2.5,2.5 0 1 1 389.51,68.624A2.5,2.5 0 1 1 394.51,68.624Z" style="fill:#185AA9" />
<path d="M407.01,68.08A2.5,2.5 0 1 1 402.01,68.08A2.5,2.5 0 1 1 407.01,68.08Z" style="fill:#185AA9" />
<path d="M419.5,59.925A2.5,2.5 0 1 1 414.5,59.925A2.5,2.5 0 1 1 419.5,59.925Z" style="fill:#185AA9" />
<path d="M432,59.744A2.5,2.5 0 1 1 427,59.744A2.5,2.5 0 1 1 432,59.744Z" style="fill:#185AA9" />
<path d="M54.635,42.709L54.635,43.071L67.13,42.709L79.626,42.89L92.121,42.89L104.62,43.071L117.11,43.071L129.61,43.071L142.1,43.071L154.6,43.071L192.09,43.071L204.58,43.071L217.08,43.071L229.57,43.071L242.07,43.071L254.56,43.253L267.06,43.253L279.55,43.253L292.05,43.253L304.54,43.253L317.04,43.253L329.54,43.253L342.03,43.253L354.53,43.253L367.02,43.253L379.52,43.253L392.01,43.253L404.51,43.253L417,43.253L429.5,43.253L429.5,42.709Z" style="fill:#FAA75B" />
<path d="M54.635,43.071L67.13,42.709L79.626,42.89L92.121,42.89L104.62,43.071L117.11,43.071L129.61,43.071L142.1,43.071L154.6,43.071L192.09,43.071L204.58,43.071L217.08,43.071L229.57,43.071L242.07,43.071L254.56,43.253L267.06,43.253L279.55,43.253L292.05,43.253L304.54,43.253L317.04,43.253L329.54,43.253L342.03,43.253L354.53,43.253L367.02,43.253L379.52,43.253L392.01,43.253L404.51,43.253L417,43.253L429.5,43.253" style="fill:none;stroke:#F47D23" />
<path d="M57.135,43.071A2.5,2.5 0 1 1 52.135,43.071A2.5,2.5 0 1 1 57.135,43.071Z" style="fill:#F47D23" />
<path d="M69.63,42.709A2.5,2.5 0 1 1 64.63,42.709A2.5,2.5 0 1 1 69.63,42.709Z" style="fill:#F47D23" />
<path d="M82.126,42.89A2.5,2.5 0 1 1 77.126,42.89A2.5,2.5 0 1 1 82.126,42.89Z" style="fill:#F47D23" />
<path d="M94.621,42.89A2.5,2.5 0 1 1 89.621,42.89A2.5,2.5 0 1 1 94.621,42.89Z" style="fill:#F47D23" />
<path d="M107.12,43.071A2.5,2.5 0 1 1 102.12,43.071A2.5,2.5 0 1 1 107.12,43.071Z" style="fill:#F47D23" />
<path d="M119.61,43.071A2.5,2.5 0 1 1 114.61,43.071A2.5,2.5 0 1 1 119.61,43.071Z" style="fill:#F47D23" />
<path d="M132.11,43.071A2.5,2.5 0 1 1 127.11,43.071A2.5,2.5 0 1 1 132.11,43.071Z" style="fill:#F47D23" />
<path d="M144.6,43.071A2.5,2.5 0 1 1 139.6,43.071A2.5,2.5 0 1 1 144.6,43.071Z" style="fill:#F47D23" />
<path d="M157.1,43.071A2.5,2.5 0 1 1 152.1,43.071A2.5,2.5 0 1 1 157.1,43.071Z" style="fill:#F47D23" />
<path d="M194.59,43.071A2.5,2.5 0 1 1 189.59,43.071A2.5,2.5 0 1 1 194.59,43.071Z" style="fill:#F47D23" />
<path d="M207.08,43.071A2.5,2.5 0 1 1 202.08,43.071A2.5,2.5 0 1 1 207.08,43.071Z" style="fill:#F47D23" />
<path d="M219.58,43.071A2.5,2.5 0 1 1 214.58,43.071A2.5,2.5 0 1 1 219.58,43.071Z" style="fill:#F47D23" />
<path d="M232.07,43.071A2.5,2.5 0 1 1 227.07,43.071A2.5,2.5 0 1 1 232.07,43.071Z" style="fill:#F47D23" />
<path d="M244.57,43.071A2.5,2.5 0 1 1 239.57,43.071A2.5,2.5 0 1 1 244.57,43.071Z" style="fill:#F47D23" />
<path d="M257.06,43.253A2.5,2.5 0 1 1 252.06,43.253A2.5,2.5 0 1 1 257.06,43.253Z" style="fill:#F47D23" />
<path d="M269.56,43.253A2.5,2.5 0 1 1 264.56,43.253A2.5,2.5 0 1 1 269.56,43.253Z" style="fill:#F47D23" />
<path d="M282.05,43.253A2.5,2.5 0 1 1 277.05,43.253A2.5,2.5 0 1 1 282.05,43.253Z" style="fill:#F47D23" />
<path d="M294.55,43.253A2.5,2.5 0 1 1 289.55,43.253A2.5,2.5 0 1 1 294.55,43.253Z" style="fill:#F47D23" />
<path d="M307.04,43.253A2.5,2.5 0 1 1 302.04,43.253A2.5,2.5 0 1 1 307.04,43.253Z" style="fill:#F47D23" />
<path d="M319.54,43.253A2.5,2.5 0 1 1 314.54,43.253A2.5,2.5 0 1 1 319.54,43.253Z" style="fill:#F47D23" />
<path d="M332.04,43.253A2.5,2.5 0 1 1 327.04,43.253A2.5,2.5 0 1 1 332.04,43.253Z" style="fill:#F47D23" />
<path d="M344.53,43.253A2.5,2.5 0 1 1 339.53,43.253A2.5,2.5 0 1 1 344.53,43.253Z" style="fill:#F47D23" />
<path d="M357.03,43.253A2.5,2.5 0 1 1 352.03,43.253A2.5,2.5 0 1 1 357.03,43.253Z" style="fill:#F47D23" />
<path d="M369.52,43.253A2.5,2.5 0 1 1 364.52,43.253A2.5,2.5 0 1 1 369.52,43.253Z" style="fill:#F47D23" />
<path d="M382.02,43.253A2.5,2.5 0 1 1 377.02,43.253A2.5,2.5 0 1 1 382.02,43.253Z" style="fill:#F47D23" />
<path d="M394.51,43.253A2.5,2.5 0 1 1 389.51,43.253A2.5,2.5 0 1 1 394.51,43.253Z" style="fill:#F47D23" />
<path d="M407.01,43.253A2.5,2.5 0 1 1 402.01,43.253A2.5,2.5 0 1 1 407.01,43.253Z" style="fill:#F47D23" />
<path d="M419.5,43.253A2.5,2.5 0 1 1 414.5,43.253A2.5,2.5 0 1 1 419.5,43.253Z" style="fill:#F47D23" />
<path d="M432,43.253A2.5,2.5 0 1 1 427,43.253A2.5,2.5 0 1 1 432,43.253Z" style="fill:#F47D23" />
<path d="M412,405.93L412,411.02L432,411.02L432,405.93Z" style="fill:#F15A60" />
<path d="M412,411.02L432,411.02" style="fill:none;stroke:#EE2E2F" />
<text x="391" y="-408.54" transform="scale(1, -1)"
	style="font-family:Liberation Serif;font-variant:normal;font-weight:normal;font-style:normal;font-size:12px">p99</text>
<path d="M412,395.75L412,400.84L432,400.84L432,395.75Z" style="fill:#7AC36A" />
<path d="M412,400.84L432,400.84" style="fill:none;stroke:#008C48" />
<text x="391" y="-398.35" transform="scale(1, -1)"
	style="font-family:Liberation Serif;font-variant:normal;font-weight:normal;font-style:normal;font-size:12px">p95</text>
<path d="M412,385.56L412,390.66L432,390.66L432,385.56Z" style="fill:#5A9BD4" />
<path d="M412,390.66L432,390.66" style="fill:none;stroke:#185AA9" />
<text x="391" y="-388.17" transform="scale(1, -1)"
	style="font-family:Liberation Serif;font-variant:normal;font-weight:normal;font-style:normal;font-size:12px">p90</text>
<path d="M412,375.38L412,380.47L432,380.47L432,375.38Z" style="fill:#FAA75B" />
<path d="M412,380.47L432,380.47" style="fill:none;stroke:#F47D23" />
<text x="391" y="-377.99" transform="scale(1, -1)"
	style="font-family:Liberation Serif;font-variant:normal;font-weight:normal;font-style:normal;font-size:12px">p50</text>
</g>
</svg>
