<?xml version="1.0"?>
<!-- Generated by SVGo and Plotinum VG -->
<svg width="432pt" height="432pt" viewBox="0 0 432 432"
	xmlns="http://www.w3.org/2000/svg"
	xmlns:xlink="http://www.w3.org/1999/xlink">
<g transform="scale(1, -1) translate(0, -432)">
<path d="M0,0L432,0L432,432L0,432Z" style="fill:#FFFFFF" />
<text x="163.85" y="-422.61" transform="scale(1, -1)"
	style="font-family:Liberation Serif;font-variant:normal;font-weight:normal;font-style:normal;font-size:12px">Latencies distribution</text>
<text x="206.58" y="-3.9023" transform="scale(1, -1)"
	style="font-family:Liberation Serif;font-variant:normal;font-weight:normal;font-style:normal;font-size:12px">Latencies (ms)</text>
<text x="128.1" y="-16.541" transform="scale(1, -1)"
	style="font-family:Liberation Serif;font-variant:normal;font-weight:normal;font-style:normal;font-size:10px">1000</text>
<text x="215.91" y="-16.541" transform="scale(1, -1)"
	style="font-family:Liberation Serif;font-variant:normal;font-weight:normal;font-style:normal;font-size:10px">2000</text>
<text x="303.72" y="-16.541" transform="scale(1, -1)"
	style="font-family:Liberation Serif;font-variant:normal;font-weight:normal;font-style:normal;font-size:10px">3000</text>
<text x="391.53" y="-16.541" transform="scale(1, -1)"
	style="font-family:Liberation Serif;font-variant:normal;font-weight:normal;font-style:normal;font-size:10px">4000</text>
<path d="M138.1,24.363L138.1,32.363" style="fill:none;stroke:#000000;stroke-width:0.5" />
<path d="M225.91,24.363L225.91,32.363" style="fill:none;stroke:#000000;stroke-width:0.5" />
<path d="M313.72,24.363L313.72,32.363" style="fill:none;stroke:#000000;stroke-width:0.5" />
<path d="M401.53,24.363L401.53,32.363" style="fill:none;stroke:#000000;stroke-width:0.5" />
<path d="M67.853,28.363L67.853,32.363" style="fill:none;stroke:#000000;stroke-width:0.5" />
<path d="M85.415,28.363L85.415,32.363" style="fill:none;stroke:#000000;stroke-width:0.5" />
<path d="M102.98,28.363L102.98,32.363" style="fill:none;stroke:#000000;stroke-width:0.5" />
<path d="M120.54,28.363L120.54,32.363" style="fill:none;stroke:#000000;stroke-width:0.5" />
<path d="M155.66,28.363L155.66,32.363" style="fill:none;stroke:#000000;stroke-width:0.5" />
<path d="M173.22,28.363L173.22,32.363" style="fill:none;stroke:#000000;stroke-width:0.5" />
<path d="M190.79,28.363L190.79,32.363" style="fill:none;stroke:#000000;stroke-width:0.5" />
<path d="M208.35,28.363L208.35,32.363" style="fill:none;stroke:#000000;stroke-width:0.5" />
<path d="M243.47,28.363L243.47,32.363" style="fill:none;stroke:#000000;stroke-width:0.5" />
<path d="M261.03,28.363L261.03,32.363" style="fill:none;stroke:#000000;stroke-width:0.5" />
<path d="M278.6,28.363L278.6,32.363" style="fill:none;stroke:#000000;stroke-width:0.5" />
<path d="M296.16,28.363L296.16,32.363" style="fill:none;stroke:#000000;stroke-width:0.5" />
<path d="M331.28,28.363L331.28,32.363" style="fill:none;stroke:#000000;stroke-width:0.5" />
<path d="M348.84,28.363L348.84,32.363" style="fill:none;stroke:#000000;stroke-width:0.5" />
<path d="M366.41,28.363L366.41,32.363" style="fill:none;stroke:#000000;stroke-width:0.5" />
<path d="M383.97,28.363L383.97,32.363" style="fill:none;stroke:#000000;stroke-width:0.5" />
<path d="M419.09,28.363L419.09,32.363" style="fill:none;stroke:#000000;stroke-width:0.5" />
<path d="M52.135,32.363L432,32.363" style="fill:none;stroke:#000000;stroke-width:0.5" />
<g transform="rotate(90)">
<text x="182.14" y="9.3867" transform="scale(1, -1)"
	style="font-family:Liberation Serif;font-variant:normal;font-weight:normal;font-style:normal;font-size:12px">Number of requests</text>
</g>
<text x="30.885" y="-37.924" transform="scale(1, -1)"
	style="font-family:Liberation Serif;font-variant:normal;font-weight:normal;font-style:normal;font-size:10px">0</text>
<text x="15.885" y="-220.36" transform="scale(1, -1)"
	style="font-family:Liberation Serif;font-variant:normal;font-weight:normal;font-style:normal;font-size:10px">3000</text>
<text x="15.885" y="-402.8" transform="scale(1, -1)"
	style="font-family:Liberation Serif;font-variant:normal;font-weight:normal;font-style:normal;font-size:10px">6000</text>
<path d="M38.385,40.209L46.385,40.209" style="fill:none;stroke:#000000;stroke-width:0.5" />
<path d="M38.385,222.65L46.385,222.65" style="fill:none;stroke:#000000;stroke-width:0.5" />
<path d="M38.385,405.09L46.385,405.09" style="fill:none;stroke:#000000;stroke-width:0.5" />
<path d="M42.385,101.02L46.385,101.02" style="fill:none;stroke:#000000;stroke-width:0.5" />
<path d="M42.385,161.84L46.385,161.84" style="fill:none;stroke:#000000;stroke-width:0.5" />
<path d="M42.385,283.46L46.385,283.46" style="fill:none;stroke:#000000;stroke-width:0.5" />
<path d="M42.385,344.28L46.385,344.28" style="fill:none;stroke:#000000;stroke-width:0.5" />
<path d="M46.385,40.209L46.385,418.71" style="fill:none;stroke:#000000;stroke-width:0.5" />
<path d="M52.135,40.209L75.876,40.209L75.876,418.71L52.135,418.71Z" style="fill:#AFEEEE" />
<path d="M52.135,40.209L75.876,40.209L75.876,418.71L52.135,418.71L52.135,40.209" style="fill:none;stroke:#000000" />
<path d="M75.876,40.209L99.618,40.209L99.618,54.5L75.876,54.5Z" style="fill:#AFEEEE" />
<path d="M75.876,40.209L99.618,40.209L99.618,54.5L75.876,54.5L75.876,40.209" style="fill:none;stroke:#000000" />
<path d="M99.618,40.209L123.36,40.209L123.36,45.865L99.618,45.865Z" style="fill:#AFEEEE" />
<path d="M99.618,40.209L123.36,40.209L123.36,45.865L99.618,45.865L99.618,40.209" style="fill:none;stroke:#000000" />
<path d="M123.36,40.209L147.1,40.209L147.1,41.729L123.36,41.729Z" style="fill:#AFEEEE" />
<path d="M123.36,40.209L147.1,40.209L147.1,41.729L123.36,41.729L123.36,40.209" style="fill:none;stroke:#000000" />
<path d="M147.1,40.209L170.84,40.209L170.84,40.695L147.1,40.695Z" style="fill:#AFEEEE" />
<path d="M147.1,40.209L170.84,40.209L170.84,40.695L147.1,40.695L147.1,40.209" style="fill:none;stroke:#000000" />
<path d="M170.84,40.209L194.58,40.209L194.58,40.452L170.84,40.452Z" style="fill:#AFEEEE" />
<path d="M170.84,40.209L194.58,40.209L194.58,40.452L170.84,40.452L170.84,40.209" style="fill:none;stroke:#000000" />
<path d="M194.58,40.209L218.33,40.209L218.33,40.209L194.58,40.209Z" style="fill:#AFEEEE" />
<path d="M194.58,40.209L218.33,40.209L218.33,40.209L194.58,40.209L194.58,40.209" style="fill:none;stroke:#000000" />
<path d="M218.33,40.209L242.07,40.209L242.07,40.391L218.33,40.391Z" style="fill:#AFEEEE" />
<path d="M218.33,40.209L242.07,40.209L242.07,40.391L218.33,40.391L218.33,40.209" style="fill:none;stroke:#000000" />
<path d="M242.07,40.209L265.81,40.209L265.81,40.513L242.07,40.513Z" style="fill:#AFEEEE" />
<path d="M242.07,40.209L265.81,40.209L265.81,40.513L242.07,40.513L242.07,40.209" style="fill:none;stroke:#000000" />
<path d="M265.81,40.209L289.55,40.209L289.55,40.209L265.81,40.209Z" style="fill:#AFEEEE" />
<path d="M265.81,40.209L289.55,40.209L289.55,40.209L265.81,40.209L265.81,40.209" style="fill:none;stroke:#000000" />
<path d="M289.55,40.209L313.29,40.209L313.29,40.209L289.55,40.209Z" style="fill:#AFEEEE" />
<path d="M289.55,40.209L313.29,40.209L313.29,40.209L289.55,40.209L289.55,40.209" style="fill:none;stroke:#000000" />
<path d="M313.29,40.209L337.03,40.209L337.03,40.209L313.29,40.209Z" style="fill:#AFEEEE" />
<path d="M313.29,40.209L337.03,40.209L337.03,40.209L313.29,40.209L313.29,40.209" style="fill:none;stroke:#000000" />
<path d="M337.03,40.209L360.78,40.209L360.78,40.209L337.03,40.209Z" style="fill:#AFEEEE" />
<path d="M337.03,40.209L360.78,40.209L360.78,40.209L337.03,40.209L337.03,40.209" style="fill:none;stroke:#000000" />
<path d="M360.78,40.209L384.52,40.209L384.52,40.209L360.78,40.209Z" style="fill:#AFEEEE" />
<path d="M360.78,40.209L384.52,40.209L384.52,40.209L360.78,40.209L360.78,40.209" style="fill:none;stroke:#000000" />
<path d="M384.52,40.209L408.26,40.209L408.26,40.756L384.52,40.756Z" style="fill:#AFEEEE" />
<path d="M384.52,40.209L408.26,40.209L408.26,40.756L384.52,40.756L384.52,40.209" style="fill:none;stroke:#000000" />
<path d="M408.26,40.209L432,40.209L432,40.513L408.26,40.513Z" style="fill:#AFEEEE" />
<path d="M408.26,40.209L432,40.209L432,40.513L408.26,40.513L408.26,40.209" style="fill:none;stroke:#000000" />
</g>
</svg>
