<?xml version="1.0"?>
<!-- Generated by SVGo and Plotinum VG -->
<svg width="432pt" height="432pt" viewBox="0 0 432 432"
	xmlns="http://www.w3.org/2000/svg"
	xmlns:xlink="http://www.w3.org/1999/xlink">
<g transform="scale(1, -1) translate(0, -432)">
<path d="M0,0L432,0L432,432L0,432Z" style="fill:#FFFFFF" />
<text x="151.01" y="-422.61" transform="scale(1, -1)"
	style="font-family:Liberation Serif;font-variant:normal;font-weight:normal;font-style:normal;font-size:12px">Response code distribution</text>
<text x="223.67" y="-3.252" transform="scale(1, -1)"
	style="font-family:Liberation Serif;font-variant:normal;font-weight:normal;font-style:normal;font-size:10px">Response codes</text>
<g transform="rotate(90)">
<text x="170.07" y="9.3867" transform="scale(1, -1)"
	style="font-family:Liberation Serif;font-variant:normal;font-weight:normal;font-style:normal;font-size:12px">Number of requests</text>
</g>
<text x="30.885" y="-13.789" transform="scale(1, -1)"
	style="font-family:Liberation Serif;font-variant:normal;font-weight:normal;font-style:normal;font-size:10px">0</text>
<text x="15.885" y="-206.38" transform="scale(1, -1)"
	style="font-family:Liberation Serif;font-variant:normal;font-weight:normal;font-style:normal;font-size:10px">3000</text>
<text x="15.885" y="-398.96" transform="scale(1, -1)"
	style="font-family:Liberation Serif;font-variant:normal;font-weight:normal;font-style:normal;font-size:10px">6000</text>
<path d="M38.385,16.074L46.385,16.074" style="fill:none;stroke:#000000;stroke-width:0.5" />
<path d="M38.385,208.66L46.385,208.66" style="fill:none;stroke:#000000;stroke-width:0.5" />
<path d="M38.385,401.25L46.385,401.25" style="fill:none;stroke:#000000;stroke-width:0.5" />
<path d="M42.385,80.27L46.385,80.27" style="fill:none;stroke:#000000;stroke-width:0.5" />
<path d="M42.385,144.47L46.385,144.47" style="fill:none;stroke:#000000;stroke-width:0.5" />
<path d="M42.385,272.86L46.385,272.86" style="fill:none;stroke:#000000;stroke-width:0.5" />
<path d="M42.385,337.05L46.385,337.05" style="fill:none;stroke:#000000;stroke-width:0.5" />
<path d="M46.385,16.074L46.385,418.71" style="fill:none;stroke:#000000;stroke-width:0.5" />
<path d="M195.47,16.074L195.47,418.71L235.47,418.71L235.47,16.074Z" style="fill:#7AC36A" />
<path d="M195.47,16.074L195.47,418.71L235.47,418.71L235.47,16.074L195.47,16.074" style="fill:none;stroke:#000000" />
<path d="M235.47,16.074L235.47,28.913L275.47,28.913L275.47,16.074Z" style="fill:#F15A60" />
<path d="M235.47,16.074L235.47,28.913L275.47,28.913L275.47,16.074L235.47,16.074" style="fill:none;stroke:#000000" />
<path d="M275.47,16.074L275.47,24.997L315.47,24.997L315.47,16.074Z" style="fill:#5A9BD4" />
<path d="M275.47,16.074L275.47,24.997L315.47,24.997L315.47,16.074L275.47,16.074" style="fill:none;stroke:#000000" />
<path d="M412,405.93L412,416.12L432,416.12L432,405.93Z" style="fill:#7AC36A" />
<path d="M412,405.93L412,416.12L432,416.12L432,405.93L412,405.93" style="fill:none;stroke:#000000" />
<text x="351.66" y="-408.54" transform="scale(1, -1)"
	style="font-family:Liberation Serif;font-variant:normal;font-weight:normal;font-style:normal;font-size:12px">NOERROR</text>
<path d="M412,395.75L412,405.93L432,405.93L432,395.75Z" style="fill:#F15A60" />
<path d="M412,395.75L412,405.93L432,405.93L432,395.75L412,395.75" style="fill:none;stroke:#000000" />
<text x="353.51" y="-398.35" transform="scale(1, -1)"
	style="font-family:Liberation Serif;font-variant:normal;font-weight:normal;font-style:normal;font-size:12px">SERVFAIL</text>
<path d="M412,385.56L412,395.75L432,395.75L432,385.56Z" style="fill:#5A9BD4" />
<path d="M412,385.56L412,395.75L432,395.75L432,385.56L412,385.56" style="fill:none;stroke:#000000" />
<text x="342.34" y="-388.17" transform="scale(1, -1)"
	style="font-family:Liberation Serif;font-variant:normal;font-weight:normal;font-style:normal;font-size:12px">NXDOMAIN</text>
</g>
</svg>
