<?xml version="1.0"?>
<!-- Generated by SVGo and Plotinum VG -->
<svg width="432pt" height="432pt" viewBox="0 0 432 432"
	xmlns="http://www.w3.org/2000/svg"
	xmlns:xlink="http://www.w3.org/1999/xlink">
<g transform="scale(1, -1) translate(0, -432)">
<path d="M0,0L432,0L432,432L0,432Z" style="fill:#FFFFFF" />
<text x="160.35" y="-422.61" transform="scale(1, -1)"
	style="font-family:Liberation Serif;font-variant:normal;font-weight:normal;font-style:normal;font-size:12px">Throughput per second</text>
<text x="202.96" y="-3.9023" transform="scale(1, -1)"
	style="font-family:Liberation Serif;font-variant:normal;font-weight:normal;font-style:normal;font-size:12px">Time of test (s)</text>
<text x="85.121" y="-16.541" transform="scale(1, -1)"
	style="font-family:Liberation Serif;font-variant:normal;font-weight:normal;font-style:normal;font-size:10px">4</text>
<text x="234.57" y="-16.541" transform="scale(1, -1)"
	style="font-family:Liberation Serif;font-variant:normal;font-weight:normal;font-style:normal;font-size:10px">16</text>
<text x="386.51" y="-16.541" transform="scale(1, -1)"
	style="font-family:Liberation Serif;font-variant:normal;font-weight:normal;font-style:normal;font-size:10px">28</text>
<path d="M87.621,24.363L87.621,32.363" style="fill:none;stroke:#000000;stroke-width:0.5" />
<path d="M239.57,24.363L239.57,32.363" style="fill:none;stroke:#000000;stroke-width:0.5" />
<path d="M391.51,24.363L391.51,32.363" style="fill:none;stroke:#000000;stroke-width:0.5" />
<path d="M163.59,28.363L163.59,32.363" style="fill:none;stroke:#000000;stroke-width:0.5" />
<path d="M315.54,28.363L315.54,32.363" style="fill:none;stroke:#000000;stroke-width:0.5" />
<path d="M49.635,32.363L429.5,32.363" style="fill:none;stroke:#000000;stroke-width:0.5" />
<g transform="rotate(90)">
<text x="159.82" y="9.3867" transform="scale(1, -1)"
	style="font-family:Liberation Serif;font-variant:normal;font-weight:normal;font-style:normal;font-size:12px">Number of requests (per sec)</text>
</g>
<text x="20.885" y="-69.883" transform="scale(1, -1)"
	style="font-family:Liberation Serif;font-variant:normal;font-weight:normal;font-style:normal;font-size:10px">50</text>
<text x="15.885" y="-227.7" transform="scale(1, -1)"
	style="font-family:Liberation Serif;font-variant:normal;font-weight:normal;font-style:normal;font-size:10px">200</text>
<text x="15.885" y="-385.52" transform="scale(1, -1)"
	style="font-family:Liberation Serif;font-variant:normal;font-weight:normal;font-style:normal;font-size:10px">350</text>
<path d="M33.385,72.168L41.385,72.168" style="fill:none;stroke:#000000;stroke-width:0.5" />
<path d="M33.385,229.99L41.385,229.99" style="fill:none;stroke:#000000;stroke-width:0.5" />
<path d="M33.385,387.8L41.385,387.8" style="fill:none;stroke:#000000;stroke-width:0.5" />
<path d="M37.385,151.08L41.385,151.08" style="fill:none;stroke:#000000;stroke-width:0.5" />
<path d="M37.385,308.89L41.385,308.89" style="fill:none;stroke:#000000;stroke-width:0.5" />
<path d="M41.385,42.709L41.385,416.21" style="fill:none;stroke:#000000;stroke-width:0.5" />
<path d="M49.635,42.709L49.635,309.95L62.297,402.53L74.959,60.595L87.621,204.74L100.28,388.86L112.95,192.11L125.61,124.77L138.27,239.46L150.93,315.21L188.92,95.315L201.58,200.53L214.24,416.21L226.91,323.62L239.57,198.42L252.23,275.23L264.89,139.5L277.55,274.17L290.22,241.56L302.88,361.5L315.54,298.37L328.2,251.03L340.86,262.6L353.53,240.51L366.19,311L378.85,317.31L391.51,252.08L404.18,369.92L416.84,413.05L429.5,42.709L429.5,42.709Z" style="fill:#AFEEEE" />
<path d="M49.635,309.95L62.297,402.53L74.959,60.595L87.621,204.74L100.28,388.86L112.95,192.11L125.61,124.77L138.27,239.46L150.93,315.21L188.92,95.315L201.58,200.53L214.24,416.21L226.91,323.62L239.57,198.42L252.23,275.23L264.89,139.5L277.55,274.17L290.22,241.56L302.88,361.5L315.54,298.37L328.2,251.03L340.86,262.6L353.53,240.51L366.19,311L378.85,317.31L391.51,252.08L404.18,369.92L416.84,413.05L429.5,42.709" style="fill:none;stroke:#000000;stroke-width:0.5" />
<path d="M52.135,309.95A2.5,2.5 0 1 1 47.135,309.95A2.5,2.5 0 1 1 52.135,309.95Z"  />
<path d="M64.797,402.53A2.5,2.5 0 1 1 59.797,402.53A2.5,2.5 0 1 1 64.797,402.53Z"  />
<path d="M77.459,60.595A2.5,2.5 0 1 1 72.459,60.595A2.5,2.5 0 1 1 77.459,60.595Z"  />
<path d="M90.121,204.74A2.5,2.5 0 1 1 85.121,204.74A2.5,2.5 0 1 1 90.121,204.74Z"  />
<path d="M102.78,388.86A2.5,2.5 0 1 1 97.783,388.86A2.5,2.5 0 1 1 102.78,388.86Z"  />
<path d="M115.45,192.11A2.5,2.5 0 1 1 110.45,192.11A2.5,2.5 0 1 1 115.45,192.11Z"  />
<path d="M128.11,124.77A2.5,2.5 0 1 1 123.11,124.77A2.5,2.5 0 1 1 128.11,124.77Z"  />
<path d="M140.77,239.46A2.5,2.5 0 1 1 135.77,239.46A2.5,2.5 0 1 1 140.77,239.46Z"  />
<path d="M153.43,315.21A2.5,2.5 0 1 1 148.43,315.21A2.5,2.5 0 1 1 153.43,315.21Z"  />
<path d="M191.42,95.315A2.5,2.5 0 1 1 186.42,95.315A2.5,2.5 0 1 1 191.42,95.315Z"  />
<path d="M204.08,200.53A2.5,2.5 0 1 1 199.08,200.53A2.5,2.5 0 1 1 204.08,200.53Z"  />
<path d="M216.74,416.21A2.5,2.5 0 1 1 211.74,416.21A2.5,2.5 0 1 1 216.74,416.21Z"  />
<path d="M229.41,323.62A2.5,2.5 0 1 1 224.41,323.62A2.5,2.5 0 1 1 229.41,323.62Z"  />
<path d="M242.07,198.42A2.5,2.5 0 1 1 237.07,198.42A2.5,2.5 0 1 1 242.07,198.42Z"  />
<path d="M254.73,275.23A2.5,2.5 0 1 1 249.73,275.23A2.5,2.5 0 1 1 254.73,275.23Z"  />
<path d="M267.39,139.5A2.5,2.5 0 1 1 262.39,139.5A2.5,2.5 0 1 1 267.39,139.5Z"  />
<path d="M280.05,274.17A2.5,2.5 0 1 1 275.05,274.17A2.5,2.5 0 1 1 280.05,274.17Z"  />
<path d="M292.72,241.56A2.5,2.5 0 1 1 287.72,241.56A2.5,2.5 0 1 1 292.72,241.56Z"  />
<path d="M305.38,361.5A2.5,2.5 0 1 1 300.38,361.5A2.5,2.5 0 1 1 305.38,361.5Z"  />
<path d="M318.04,298.37A2.5,2.5 0 1 1 313.04,298.37A2.5,2.5 0 1 1 318.04,298.37Z"  />
<path d="M330.7,251.03A2.5,2.5 0 1 1 325.7,251.03A2.5,2.5 0 1 1 330.7,251.03Z"  />
<path d="M343.36,262.6A2.5,2.5 0 1 1 338.36,262.6A2.5,2.5 0 1 1 343.36,262.6Z"  />
<path d="M356.03,240.51A2.5,2.5 0 1 1 351.03,240.51A2.5,2.5 0 1 1 356.03,240.51Z"  />
<path d="M368.69,311A2.5,2.5 0 1 1 363.69,311A2.5,2.5 0 1 1 368.69,311Z"  />
<path d="M381.35,317.31A2.5,2.5 0 1 1 376.35,317.31A2.5,2.5 0 1 1 381.35,317.31Z"  />
<path d="M394.01,252.08A2.5,2.5 0 1 1 389.01,252.08A2.5,2.5 0 1 1 394.01,252.08Z"  />
<path d="M406.68,369.92A2.5,2.5 0 1 1 401.68,369.92A2.5,2.5 0 1 1 406.68,369.92Z"  />
<path d="M419.34,413.05A2.5,2.5 0 1 1 414.34,413.05A2.5,2.5 0 1 1 419.34,413.05Z"  />
<path d="M432,42.709A2.5,2.5 0 1 1 427,42.709A2.5,2.5 0 1 1 432,42.709Z"  />
</g>
</svg>
