<?xml version="1.0" encoding="UTF-8" standalone="no"?>
<!-- Uploaded to: SVG Repo, www.svgrepo.com, Generator: SVG Repo Mixer Tools -->

<svg
   fill="#000000"
   width="334.61301mm"
   height="131.66093mm"
   viewBox="0 0 50.587162 19.904645"
   version="1.1"
   id="svg6"
   sodipodi:docname="longlogo.svg"
   inkscape:version="1.2.2 (b0a8486, 2022-12-01)"
   inkscape:export-filename="longlogo.png"
   inkscape:export-xdpi="25.485645"
   inkscape:export-ydpi="25.485645"
   xmlns:inkscape="http://www.inkscape.org/namespaces/inkscape"
   xmlns:sodipodi="http://sodipodi.sourceforge.net/DTD/sodipodi-0.dtd"
   xmlns="http://www.w3.org/2000/svg"
   xmlns:svg="http://www.w3.org/2000/svg"
   xmlns:rdf="http://www.w3.org/1999/02/22-rdf-syntax-ns#"
   xmlns:cc="http://creativecommons.org/ns#"
   xmlns:dc="http://purl.org/dc/elements/1.1/">
  <defs
     id="defs10">
    <rect
       x="857.9176"
       y="278.41379"
       width="993.97504"
       height="326.28583"
       id="rect8856" />
  </defs>
  <sodipodi:namedview
     id="namedview8"
     pagecolor="#ffffff"
     bordercolor="#000000"
     borderopacity="0.25"
     inkscape:showpageshadow="2"
     inkscape:pageopacity="0.0"
     inkscape:pagecheckerboard="0"
     inkscape:deskcolor="#d1d1d1"
     showgrid="false"
     inkscape:zoom="0.53792712"
     inkscape:cx="601.38258"
     inkscape:cy="133.84713"
     inkscape:window-width="1514"
     inkscape:window-height="956"
     inkscape:window-x="0"
     inkscape:window-y="25"
     inkscape:window-maximized="0"
     inkscape:current-layer="g22171"
     inkscape:document-units="mm" />
  <title
     id="title2">burning-embers</title>
  <path
     style="fill:#784421;stroke-width:0.0181392"
     d=""
     id="path1320" />
  <g
     id="g22171"
     transform="translate(-5.1667881,-5.3985726)">
    <g
       id="g6466"
       transform="matrix(0.75049319,0,0,0.75640721,4.3953088,0.90131164)">
      <path
         style="fill:#b12600;fill-opacity:1"
         d="m 23.560168,13.791168 c -0.366,5.124 -4.399,3.122 -2.747,-3.644 0.405,-1.6610003 -0.751,-3.5260003 -1.59,-4.0050003 1.65,4.1880003 -3.697,7.3180003 -3.557,2.198 -2.509,2.3040003 -0.799,5.2120003 0.299,7.5610003 0.832,1.781 0.77,3.359 -0.631,3.959 -1.001,0.429 -2.113,-0.723 -2.472,-1.905 -0.16,-0.526 -0.107,-1.304 0.058,-2.371 -1.316,2.671 -3.3679997,2.864 -2.4,-1.967 -3.7189997,4.232 -2.3749997,12.408 2.809,14.905 -0.81,-1.589 -0.887,-5.242 -0.887,-5.242 v 0 0 0 c 0,0 7.556,0.09 7.864,-4.309 0.842,2.784 0.724,6.847 -0.676,9.763 5.643,-2.203 6.908,-10.699 3.934,-14.943 z"
         id="path9666" />
      <g
         id="g6456">
        <path
           style="fill:#502d16;fill-opacity:1"
           d="m 6.9716099,23.459913 c -3.129,0.85 -5.151,2.11 -5.151,3.507 0,2.559 6.647,4.639 14.8320001,4.639 8.185,0 14.832,-2.08 14.832,-4.639 0,-1.392 -2.004,-2.657 -5.114,-3.507 1.075,0.554 1.717,1.201 1.717,1.9 0,2.005 -5.136,3.653 -11.434,3.653 -6.298,0 -11.3980001,-1.648 -11.3980001,-3.653 0,-0.702 1.717,-1.9 1.717,-1.9 v 0 z"
           id="path4" />
        <g
           id="g14763"
           transform="matrix(0.77797286,0,0,0.80479126,-10.273138,12.317543)"
           style="fill:#241c1c">
          <g
             id="g14766"
             style="fill:#241c1c">
            <g
               id="g14769"
               style="fill:#241c1c">
              <path
                 d="m 37.202119,18.316453 c 0.01009,0 0.01977,0.001 0.02923,0.0028 0.0631,-0.107846 0.120621,-0.221039 0.172702,-0.339358 9.9e-4,-0.0023 0.0021,-0.0046 0.0033,-0.0068 0.07806,-0.18061 0.136974,-0.368075 0.176668,-0.562448 0.01063,-0.05187 0.01977,-0.10423 0.02753,-0.156967 0.03518,-0.213374 0.04421,-0.430203 0.02653,-0.650539 -0.0088,-0.139857 -0.02687,-0.27669 -0.05406,-0.410502 -0.04019,-0.196803 -0.100087,-0.38675 -0.179805,-0.56941 l -1.1e-4,1.07e-4 -0.171051,-0.336442 v 0 l -0.01558,-0.01813 h -5.323551 l -0.01074,0.01813 c -0.06254,0.106986 -0.119466,0.219203 -0.170941,0.336496 -10e-4,0.0023 -0.0022,0.0046 -0.0033,0.0068 -0.04834,0.111791 -0.0893,0.226165 -0.122935,0.343189 -0.141597,0.456005 -0.163618,0.911955 -0.067,1.367905 0.0042,0.0232 0.0086,0.04632 0.01321,0.06936 0.04014,0.196802 0.100086,0.386696 0.179694,0.569411 l 2.19e-4,-5.5e-5 c 0.05147,0.117242 0.108397,0.22946 0.170941,0.336444 v 0 c 1.774701,-5.4e-5 3.546815,-5.4e-5 5.318983,-5.4e-5 z M 32.952108,15.95822 c 0.250383,0 0.442575,0.06655 0.576519,0.199556 0.13389,0.133001 0.20089,0.324892 0.20089,0.575565 0,0.296985 -0.07795,0.525311 -0.233757,0.684977 -0.155856,0.159613 -0.379042,0.2395 -0.669779,0.2395 -0.182117,0 -0.395724,-0.0078 -0.640821,-0.02322 l 0.02626,-0.489254 -0.02626,-1.176877 z m -0.02631,1.315924 c 0.08236,0 0.144956,-0.03228 0.187842,-0.09657 0.04289,-0.0644 0.06436,-0.170408 0.06436,-0.31809 0,-0.125284 -0.0088,-0.224008 -0.02626,-0.296122 -0.01756,-0.07211 -0.04564,-0.123982 -0.08407,-0.155726 -0.03854,-0.03179 -0.09194,-0.04766 -0.160206,-0.04766 -0.06656,0 -0.132238,0.0034 -0.197036,0.01024 l -0.01833,0.723626 0.0053,0.159666 c 0.105042,0.01377 0.181236,0.02062 0.228471,0.02062 z m 2.478283,-0.182823 0.02097,0.54334 h -0.572556 l -0.477974,-0.890956 h -0.03155 l -0.0026,0.288348 0.02103,0.602608 h -0.478028 l 0.02626,-0.489254 -0.02626,-1.176876 h 0.572555 l 0.477974,0.891009 h 0.03149 l -0.01569,-0.872927 0.483204,-0.02834 z m 1.001586,-1.153666 c 0.166261,0 0.330981,0.03001 0.493774,0.09014 l -0.08407,0.419732 -0.07355,0.03093 c -0.07355,-0.0447 -0.146221,-0.07989 -0.217956,-0.105634 -0.07173,-0.02569 -0.129651,-0.03864 -0.173308,-0.03864 -0.0403,0 -0.07228,0.0078 -0.09591,0.02321 -0.02362,0.01544 -0.03551,0.03606 -0.03551,0.06186 0,0.0326 0.01806,0.06057 0.0539,0.08367 0.03579,0.02315 0.09568,0.05414 0.179914,0.09138 0.09783,0.04335 0.178594,0.08286 0.24174,0.11972 0.06293,0.03687 0.118144,0.08767 0.16538,0.151895 0.04718,0.06434 0.07097,0.143796 0.07097,0.238203 0,0.104723 -0.02934,0.199556 -0.08808,0.28457 -0.05858,0.08496 -0.142258,0.152433 -0.250769,0.202147 -0.108507,0.04972 -0.234637,0.07465 -0.378272,0.07465 -0.178483,0 -0.365884,-0.0326 -0.562039,-0.09786 l 0.07625,-0.448123 0.05246,-0.03088 c 0.08054,0.06008 0.166756,0.107745 0.258696,0.14288 0.09194,0.03519 0.168519,0.05284 0.229793,0.05284 0.04905,0 0.08462,-0.0082 0.106478,-0.02445 0.02174,-0.0163 0.03281,-0.03649 0.03281,-0.06045 0,-0.03611 -0.01882,-0.06666 -0.05643,-0.09143 -0.03766,-0.02489 -0.09861,-0.05543 -0.182557,-0.09138 -0.09624,-0.04124 -0.175511,-0.08032 -0.23761,-0.117242 -0.06226,-0.03687 -0.116108,-0.0876 -0.161527,-0.151893 -0.04548,-0.06434 -0.06838,-0.143797 -0.06838,-0.238203 0,-0.108176 0.0299,-0.205656 0.08935,-0.29229 0.05946,-0.08663 0.142699,-0.155024 0.249448,-0.204683 0.106643,-0.04972 0.228361,-0.07465 0.365004,-0.07465 z m 0.63427,2.669523 h -0.936625 c -0.284407,0.403808 -0.667413,0.802649 -1.147313,1.196524 0.07525,-0.0092 0.149691,-0.02094 0.223352,-0.0353 0.200724,-0.03935 0.394402,-0.09807 0.580758,-0.176237 l -1.1e-4,-2.16e-4 c 0.189439,-0.07989 0.365884,-0.173376 0.529007,-0.28063 0.163454,-0.10753 0.314961,-0.229676 0.454191,-0.366778 l 5.5e-4,-5.4e-4 v 0 c 0.107739,-0.105204 0.206451,-0.217531 0.296188,-0.336822 z m -2.879897,1.196524 c -0.47985,-0.393875 -0.862858,-0.792716 -1.147208,-1.196524 h -0.936513 c 0.08979,0.11929 0.188447,0.231619 0.296133,0.336821 l 5.5e-4,5.93e-4 v -5.3e-5 c 0.139285,0.137103 0.290791,0.259309 0.45419,0.366779 0.163068,0.107252 0.339514,0.200743 0.529063,0.28063 0.0023,0.001 0.0047,0.0021 0.007,0.0033 0.184154,0.07665 0.375409,0.134297 0.573656,0.173215 0.07355,0.01441 0.147874,0.02624 0.223132,0.03536 z m -2.083716,-4.807634 h 0.987548 c 0.281212,-0.397331 0.653043,-0.796982 1.117033,-1.198954 -0.0823,0.0095 -0.163674,0.02208 -0.243942,0.03778 -0.200779,0.03935 -0.394402,0.09814 -0.580757,0.176237 v 1.62e-4 c -0.189495,0.07994 -0.36594,0.173323 -0.529008,0.280684 -0.163454,0.107531 -0.314906,0.229676 -0.454191,0.366726 l -5.5e-4,4.85e-4 v 0 c -0.107684,0.105305 -0.20634,0.217531 -0.296133,0.336875 z m 2.858922,-1.199008 c 0.46399,0.401972 0.835821,0.801624 1.117088,1.198953 h 0.987603 c -0.0899,-0.11929 -0.188613,-0.231672 -0.296353,-0.336875 l -5.5e-4,-4.85e-4 v 0 c -0.13912,-0.137104 -0.290627,-0.259201 -0.45419,-0.366725 -0.163124,-0.107303 -0.33957,-0.200743 -0.529008,-0.280684 -0.0023,-10e-4 -0.0047,-0.0021 -0.007,-0.0033 -0.184209,-0.07654 -0.375464,-0.134297 -0.573657,-0.17316 -0.08016,-0.01576 -0.161691,-0.02834 -0.243941,-0.03783 z m -1.056143,-0.247218 c 0.219772,-0.04313 0.446152,-0.06466 0.678972,-0.06466 0.232821,0 0.459201,0.02153 0.678973,0.06466 0.216691,0.04254 0.427105,0.106279 0.631738,0.19146 0.0027,9.71e-4 0.0055,0.002 0.008,0.0032 0.203862,0.08603 0.396219,0.188112 0.576574,0.306864 0.179914,0.118316 0.346341,0.252454 0.499003,0.402727 0.153324,0.149789 0.290186,0.313017 0.410864,0.489308 0.120952,0.176778 0.225169,0.365376 0.312923,0.565363 l -2.2e-4,5.5e-5 2.2e-4,4.85e-4 c 0.08848,0.202849 0.154645,0.411689 0.198467,0.626627 0.04399,0.21548 0.06579,0.437436 0.06579,0.665762 0,0.228272 -0.0218,0.450336 -0.06579,0.665816 -0.04333,0.212239 -0.108616,0.418759 -0.195273,0.619232 -0.0011,0.0027 -0.0021,0.0054 -0.0033,0.008 -0.08775,0.199987 -0.191807,0.388423 -0.312924,0.565254 -0.120622,0.176399 -0.25743,0.339521 -0.410754,0.489308 -0.152773,0.150328 -0.319253,0.284517 -0.499113,0.402782 -0.18019,0.118645 -0.372602,0.220823 -0.576464,0.30681 l -1.1e-4,-2.17e-4 -5.5e-4,2.17e-4 c -0.206892,0.08669 -0.420003,0.151623 -0.639115,0.194536 -0.219773,0.04318 -0.446208,0.06466 -0.678974,0.06466 -0.23282,0 -0.45931,-0.02148 -0.679028,-0.06466 -0.216525,-0.04249 -0.427104,-0.106342 -0.631682,-0.191406 -0.0027,-10e-4 -0.0054,-0.002 -0.0081,-0.0033 -0.203973,-0.08598 -0.396219,-0.18806 -0.576519,-0.30681 -0.179805,-0.118215 -0.34634,-0.252454 -0.499058,-0.402781 -0.153324,-0.149849 -0.290132,-0.313077 -0.410754,-0.489315 -0.121007,-0.176724 -0.225168,-0.365322 -0.312924,-0.565309 l 2.21e-4,-1.08e-4 -2.21e-4,-4.85e-4 c -0.08841,-0.202849 -0.15459,-0.411743 -0.198412,-0.626628 -0.04393,-0.215371 -0.06596,-0.437327 -0.06596,-0.665708 0,-0.228271 0.02203,-0.450281 0.06596,-0.665761 0.04333,-0.212294 0.108452,-0.418705 0.19522,-0.619287 0.001,-0.0027 0.0021,-0.0054 0.0032,-0.008 0.08775,-0.199988 0.191862,-0.388532 0.312924,-0.565363 0.120677,-0.176291 0.257485,-0.33952 0.410753,-0.489308 0.152719,-0.150328 0.319254,-0.284463 0.499059,-0.402729 0.1803,-0.118695 0.372657,-0.220768 0.576519,-0.306862 l 5.5e-5,2.16e-4 4.95e-4,-2.16e-4 c 0.207056,-0.08658 0.420167,-0.151462 0.639335,-0.194482 z m 0.827341,0.435601 v 1.010625 h 0.981382 c -0.25798,-0.333366 -0.584722,-0.670188 -0.981382,-1.010625 z m 0,4.621735 v 1.022986 c 0.420883,-0.339142 0.765243,-0.680174 1.032031,-1.022986 z m -0.296572,1.023095 v -1.023095 h -1.03214 c 0.266623,0.342758 0.611147,0.683952 1.03214,1.023095 z m 0,-4.634205 v -1.010734 c -0.39677,0.340438 -0.723567,0.677368 -0.981437,1.010734 z"
                 id="path341"
                 style="fill:#241c1c;fill-opacity:1;stroke-width:0.0545129" />
            </g>
          </g>
        </g>
        <path
           d="m 23.749183,16.227436 c -0.371278,4.671836 -5.034871,0.831603 -3.359047,-5.337336 0.410841,-1.5144258 -0.225277,-1.5682496 -0.505309,-2.0025729 -0.486068,2.8492619 -3.418028,7.0598959 -3.276008,2.3917069 -1.381377,2.120751 -0.921285,3.352278 0.192549,5.493992 0.844,1.623836 0.340062,3.455472 -1.081143,4.002526 C 14.70479,21.166894 13.195506,20.277077 12.83133,19.199382 12.669022,18.719798 12.34154,17.869994 12.508913,16.89715 11.173935,19.33245 9.6140516,20.632094 9.9940433,15.143858 8.9102074,19.183 8.8248514,24.325952 12.438228,26.923656 11.431417,25.407306 11.926071,24.165463 11.704579,22.94726 l 1.710797,-0.183398 c 2.889799,-0.309788 6.349644,-0.802614 6.412872,-5.543818 2.029077,3.152499 2.734908,7.597058 0.207095,11.058765 4.252268,-4.110722 4.425831,-6.089453 4.385411,-9.572687 z"
           id="path1059"
           style="fill:#ff751a;fill-opacity:1;stroke-width:0.961719"
           sodipodi:nodetypes="cccccccccccscccc" />
      </g>
    </g>
    <text
       xml:space="preserve"
       style="font-size:5.78646px;fill:#000000;stroke-width:0.0301377"
       x="29.033091"
       y="19.177662"
       id="text7248"
       transform="scale(0.99608301,1.0039324)"><tspan
         id="tspan7246"
         style="font-weight:bold;font-size:5.78646px;fill:#000000;stroke-width:0.0301377"
         x="29.033091"
         y="19.177662"
         sodipodi:role="line"><tspan
           style="fill:#b22700;fill-opacity:1;stroke-width:0.0301377"
           id="tspan11038">dns</tspan><tspan
           style="fill:#ff751a;fill-opacity:1;stroke-width:0.0301377"
           id="tspan11380">pyre</tspan></tspan></text>
    <text
       xml:space="preserve"
       transform="matrix(0.03001974,0,0,0.03025629,4.8699914,3.6123768)"
       id="text8854"
       style="font-size:192px;white-space:pre;shape-inside:url(#rect8856);display:inline;fill:#000000" />
  </g>
  <metadata
     id="metadata7490">
    <rdf:RDF>
      <cc:Work
         rdf:about="">
        <dc:title>burning-embers</dc:title>
      </cc:Work>
    </rdf:RDF>
  </metadata>
</svg>
